<svg width="121" height="34" viewBox="0 0 121 34" fill="none" xmlns="http://www.w3.org/2000/svg">
<g clip-path="url(#clip0_1909_353)">
<path fill-rule="evenodd" clip-rule="evenodd" d="M106.357 11.9424C106.854 12.1763 107.266 12.4832 107.593 12.8925C107.92 13.2872 108.162 13.7549 108.318 14.2812C108.475 14.8074 108.56 15.3775 108.56 15.9768H100.13C100.329 14.5881 100.812 13.5064 101.551 12.7463C102.29 11.9862 103.314 11.6062 104.622 11.6062C105.276 11.5916 105.859 11.7085 106.357 11.9424ZM100.769 9.03353C99.6604 9.53052 98.722 10.2029 97.9543 11.0653C97.1866 11.9132 96.5895 12.9218 96.1772 14.0765C95.7649 15.2313 95.5659 16.4592 95.5659 17.7601C95.5659 19.4411 95.8076 20.9174 96.2767 22.1892C96.7459 23.4609 97.3999 24.5426 98.2244 25.405C99.049 26.2674 100.016 26.9252 101.125 27.3637C102.234 27.8022 103.442 28.0215 104.736 28.0215C105.39 28.0215 106.058 27.9776 106.755 27.8753C107.451 27.773 108.134 27.5976 108.802 27.3637C109.47 27.1152 110.124 26.7936 110.735 26.399C111.261 26.0481 111.759 25.6681 112.185 25.1565C112.242 25.0834 112.285 25.0103 112.299 24.9518C112.342 24.7618 112.228 24.6595 112.228 24.6595L111.105 23.2124C111.005 23.0808 110.892 22.9639 110.764 22.8908C110.636 22.8177 110.479 22.7739 110.295 22.7739C110.01 22.7739 109.726 22.8616 109.427 23.037C109.129 23.2124 108.788 23.4024 108.39 23.6217C107.991 23.8263 107.537 24.031 107.01 24.2064C106.484 24.3818 105.859 24.4695 105.134 24.4695C103.655 24.4695 102.475 24.0017 101.58 23.0808C100.684 22.1599 100.172 20.7128 100.03 18.7541H111.546C111.745 18.7541 111.915 18.7248 112.057 18.6664C112.185 18.6079 112.299 18.5202 112.37 18.3886C112.456 18.2571 112.498 18.0817 112.541 17.8478C112.569 17.6139 112.583 17.3216 112.583 16.9854C112.583 15.5967 112.384 14.3689 111.986 13.3018C111.588 12.2201 111.034 11.3138 110.309 10.5684C109.598 9.82287 108.745 9.26741 107.764 8.87274C106.783 8.49269 105.703 8.28805 104.523 8.28805C103.129 8.28805 101.878 8.53654 100.769 9.03353ZM88.0167 15.816C88.4717 14.7928 89.0403 14.0181 89.7085 13.4918C90.3767 12.9656 91.1729 12.7025 92.1112 12.7025C92.6372 12.7025 93.0495 12.7463 93.3623 12.834C93.675 12.9218 93.9309 12.9656 94.1015 12.9656C94.3006 12.9656 94.4712 12.9218 94.5991 12.8194C94.7129 12.7317 94.7982 12.5709 94.8408 12.3371L95.3384 9.36973V9.1797C95.3384 9.06277 95.3242 8.94583 95.2816 8.84351C95.2531 8.77042 95.1963 8.72657 95.1252 8.68272C94.5707 8.37575 93.9167 8.21496 93.1348 8.21496C92.0259 8.21496 91.0165 8.55116 90.1208 9.23818C89.2252 9.92519 88.4432 10.8607 87.775 12.0447L87.5049 9.73517C87.4481 9.31126 87.3201 9.01892 87.1353 8.84351C86.9505 8.6681 86.6377 8.58039 86.1685 8.58039H83.9081C83.9081 8.58039 83.5384 8.58039 83.5384 9.0043V27.2614C83.5384 27.2614 83.51 27.7438 83.9649 27.7438H87.5618C88.0309 27.7438 88.0167 27.2322 88.0167 27.2322V23.1247V15.816ZM68.5396 22.8616C67.7861 21.7799 67.4165 20.2158 67.4165 18.1694C67.4165 16.123 67.7861 14.5443 68.5396 13.448C69.2931 12.3517 70.4589 11.8108 72.0227 11.8108C73.5724 11.8108 74.7239 12.3517 75.4632 13.4334C76.2025 14.515 76.5864 16.0937 76.5864 18.1548C76.5864 20.2158 76.2167 21.7945 75.4632 22.8616C74.7239 23.9286 73.5724 24.4695 72.0227 24.4695C70.4447 24.4695 69.2789 23.9432 68.5396 22.8616ZM68.2268 8.97506C67.0895 9.44282 66.1227 10.086 65.3124 10.9338C64.502 11.7816 63.8765 12.8194 63.4357 14.0327C62.995 15.2459 62.7675 16.6199 62.7675 18.1255C62.7675 19.6457 62.995 21.0198 63.4357 22.233C63.8765 23.4463 64.502 24.4987 65.3124 25.3465C66.1227 26.2089 67.0895 26.8667 68.2268 27.3199C69.3642 27.773 70.6295 28.0069 72.0227 28.0069C73.416 28.0069 74.6813 27.773 75.8044 27.3199C76.9418 26.8521 77.9085 26.1943 78.7047 25.3465C79.5008 24.4841 80.1264 23.4463 80.5529 22.233C80.9936 21.0198 81.2068 19.6457 81.2068 18.1255C81.2068 16.6199 80.9936 15.2605 80.5529 14.0327C80.1121 12.8194 79.5008 11.7816 78.7047 10.9338C77.9085 10.086 76.9418 9.4282 75.8044 8.97506C74.6671 8.50731 73.416 8.28805 72.0227 8.28805C70.6295 8.28805 69.3642 8.52192 68.2268 8.97506ZM55.7444 27.2614C55.7444 27.2614 55.716 27.7438 56.1709 27.7438H59.7678C60.2369 27.7438 60.2227 27.2322 60.2227 27.2322V23.1247V0.482371C60.2227 0.482371 60.2512 0 59.7962 0H56.1993C55.7302 0 55.7444 0.511608 55.7444 0.511608V4.61909V9.0043V27.2614ZM46.4039 12.2055C46.8731 12.4248 47.2711 12.7902 47.5981 13.2726C47.9251 13.7549 48.181 14.3835 48.3516 15.1728C48.5222 15.9475 48.6217 16.8977 48.6217 18.0232C48.6217 19.1341 48.5222 20.0989 48.309 20.9028C48.1099 21.7214 47.8114 22.3938 47.4275 22.9346C47.0437 23.4755 46.5745 23.8702 46.0343 24.1333C45.4798 24.3964 44.8685 24.5279 44.1861 24.5279C43.4894 24.5279 42.8497 24.3964 42.2526 24.1479C41.6555 23.8994 41.101 23.4463 40.5892 22.7885V14.1935C40.6034 14.1788 40.6141 14.1642 40.6247 14.1496C40.6354 14.135 40.6461 14.1204 40.6603 14.1058C41.2147 13.4187 41.7976 12.8779 42.4374 12.4832C43.0914 12.0739 43.8875 11.8693 44.8258 11.8693C45.4087 11.8693 45.9348 11.9862 46.4039 12.2055ZM36.0967 33.5176C36.0967 33.5176 36.0682 34 36.5232 34H40.1343C40.6034 34 40.5892 33.4884 40.5892 33.4884V30.8426V26.1651C41.1721 26.7498 41.8261 27.2029 42.5653 27.5391C43.3046 27.8753 44.1861 28.0361 45.2381 28.0361C46.4608 28.0361 47.5697 27.7876 48.5507 27.276C49.5316 26.779 50.3846 26.0774 51.0813 25.1711C51.7779 24.2794 52.3181 23.2124 52.6878 21.9991C53.0574 20.7859 53.2564 19.4557 53.2564 18.0232C53.2564 16.4592 53.0858 15.0705 52.7589 13.8426C52.4319 12.6294 51.9485 11.6062 51.3372 10.7876C50.7258 9.95442 50.0008 9.32588 49.162 8.88736C48.3232 8.44884 47.3849 8.22958 46.3755 8.22958C45.0675 8.22958 43.9302 8.50731 42.9492 9.04815C41.9682 9.58899 41.1152 10.3052 40.3617 11.1969L39.9921 9.4282C39.9352 9.13585 39.7931 8.93121 39.594 8.79965C39.395 8.6681 39.1391 8.59501 38.8547 8.59501L38.741 8.58039L37.3193 8.59501H36.4805C36.4805 8.59501 36.1109 8.59501 36.1109 9.01892L36.0967 33.5176ZM0.526025 0.745381H5.23181H16.193C16.193 0.745381 16.5769 0.716146 16.5769 1.11081V4.34125C16.5769 4.79439 16.2072 4.76516 16.2072 4.76516H8.91399L5.16073 4.73592C5.16073 4.73592 4.93326 4.70669 4.93326 4.94056V11.9423C4.93326 11.9423 4.89061 12.2346 5.18916 12.2346H13.7762C13.7762 12.2346 14.1174 12.1762 14.1174 12.5562V15.8451C14.1174 16.1082 13.8757 16.0936 13.8757 16.0936H5.16073C4.96169 16.0936 4.93326 16.2836 4.93326 16.2836V23.3438C4.93326 23.3438 4.90483 23.7239 5.23181 23.7239H16.193C16.193 23.7239 16.5769 23.6946 16.5769 24.0893V27.3198C16.5769 27.7729 16.2072 27.7437 16.2072 27.7437H0.383857C0.383857 27.7437 0 27.7437 0 27.2028V1.35931C0.00198438 1.35931 0.00313783 1.34735 0.00512275 1.32677C0.0173586 1.19989 0.06119 0.745381 0.526025 0.745381ZM27.3106 18.8417C29.1304 22.5545 31.0781 26.0919 33.0827 29.3808C33.2675 29.6878 33.3244 29.9947 33.2391 30.2286C33.1724 30.4481 32.8803 30.5646 32.7858 30.6023L32.7699 30.6087C32.6704 30.6671 32.5709 30.6818 32.4572 30.6818H32.4287C31.9311 30.6671 31.4478 30.1702 30.68 29.2054L30.5805 29.0885C30.1398 28.533 29.4147 27.4806 29.2726 27.2613C29.0735 26.969 28.9314 26.7643 28.7608 26.545L28.7443 26.523L28.7443 26.523C28.4223 26.0912 28.0828 25.636 27.5097 24.6156C26.8984 23.5193 26.3012 22.4668 25.7183 21.4582L25.6046 21.2682L21.6665 27.349C21.2685 27.9191 20.8135 27.9629 20.4155 27.9922L20.2448 28.0068C20.2262 28.0068 20.2049 28.0096 20.1809 28.0127H20.1809C20.1498 28.0168 20.1143 28.0214 20.0742 28.0214H19.9179C19.7046 28.0214 19.4487 28.0068 19.2212 27.9191C19.0933 27.8752 18.7663 27.7144 18.6526 27.349C18.5815 27.1297 18.6241 26.8959 18.7521 26.7058C19.6477 25.4195 20.5008 24.1332 21.3111 22.9053C22.1499 21.6044 23.0314 20.2157 24.055 18.5347C22.5053 15.7574 20.8704 12.6878 19.4487 9.00421C19.2212 8.40489 19.662 7.89329 19.9036 7.74711C19.9808 7.70178 20.0323 7.66524 20.0715 7.63748C20.0828 7.62943 20.0931 7.62213 20.1027 7.61556C20.2164 7.52785 20.2733 7.49862 20.515 7.44015C21.3111 7.23551 22.3774 7.51324 22.6902 8.33181C23.3157 9.95434 23.9839 11.5769 24.6663 13.1555C25.0217 13.9887 25.4056 14.8219 25.7894 15.6405L25.96 15.3481C27.2396 13.1555 28.3627 11.1237 29.4147 9.13576C29.5996 8.77033 29.9692 8.60954 30.1967 8.52183C30.4952 8.40489 30.8506 8.31719 31.2772 8.27334C31.462 8.2441 32.4429 8.17102 32.7841 8.71186C32.9405 8.94574 32.9547 9.2527 32.8126 9.51581C32.1159 10.846 31.3767 12.2054 30.6232 13.5356L27.2538 18.7248L27.3106 18.8417ZM118.185 27.9922C119.351 27.9922 120.303 27.0128 120.303 25.8142C120.303 24.6156 119.351 23.6362 118.185 23.6362C117.019 23.6362 116.067 24.6156 116.067 25.8142C116.067 27.0128 117.019 27.9922 118.185 27.9922ZM116.18 2.17787C116.707 1.56394 117.375 1.25697 118.185 1.25697C118.953 1.25697 119.607 1.56394 120.19 2.19249C120.73 2.80642 121 3.6396 121 4.69205C121 5.48139 120.915 6.3292 120.773 7.22086C120.616 8.11252 120.36 9.48655 120.005 11.3283C119.55 13.4479 119.209 15.2896 118.953 16.8683C118.949 16.8894 118.945 16.9102 118.941 16.9308C118.916 17.0528 118.894 17.1671 118.882 17.2922C118.875 17.3653 118.864 17.4384 118.853 17.5114C118.843 17.5845 118.832 17.6576 118.825 17.7307C118.818 17.8038 118.807 17.8769 118.796 17.95C118.786 18.0231 118.775 18.0962 118.768 18.1693C118.74 18.3153 118.725 18.4613 118.711 18.6073L118.711 18.6078L118.668 19.0463L118.626 19.4848C118.626 19.6456 118.612 19.7918 118.597 19.938C118.59 20.0164 118.587 20.0913 118.583 20.1644C118.58 20.2413 118.576 20.3162 118.569 20.3911C118.562 20.4642 118.558 20.5409 118.555 20.6177C118.551 20.6944 118.548 20.7712 118.54 20.8442C118.54 20.9173 118.537 20.9941 118.533 21.0708C118.53 21.1476 118.526 21.2243 118.526 21.2974C118.512 21.3705 118.512 21.4582 118.512 21.5313V21.6482C118.512 21.6628 118.498 21.692 118.484 21.7212L118.484 21.7213C118.477 21.7286 118.466 21.7323 118.455 21.7359C118.445 21.7396 118.434 21.7432 118.427 21.7505C118.384 21.7651 118.327 21.7798 118.27 21.7798H118.171C118.142 21.7724 118.114 21.7688 118.086 21.7651C118.057 21.7615 118.029 21.7578 118 21.7505C117.943 21.7359 117.887 21.7067 117.887 21.6482C117.844 19.9818 117.687 18.4178 117.446 16.8537C117.204 15.275 116.849 13.4332 116.394 11.3137C116.024 9.47193 115.768 8.0979 115.626 7.20624C115.47 6.31458 115.399 5.46678 115.399 4.67744C115.399 3.62499 115.654 2.7918 116.18 2.17787Z" fill="white"/>
</g>
<defs>
<clipPath id="clip0_1909_353">
<rect width="121" height="34" fill="white"/>
</clipPath>
</defs>
</svg>
