<svg xmlns="http://www.w3.org/2000/svg" viewBox="0 0 320 80" fill="none">
  <path d="M40 8C22.33 8 8 22.33 8 40s14.33 32 32 32 32-14.33 32-32S57.67 8 40 8zm0 5.33c3.85 0 7.47 1.03 10.6 2.8L40 38.67 29.4 16.13A26.57 26.57 0 0140 13.33zm-13.07 4.54L38.67 40 16.13 50.6a26.57 26.57 0 01-2.8-10.6c0-8.53 4.04-16.13 10.27-21.07h.33v-.06zM40 66.67a26.57 26.57 0 01-10.6-2.8L40 41.33l10.6 22.54A26.57 26.57 0 0140 66.67zm13.07-4.54L41.33 40l22.54-10.6a26.57 26.57 0 012.8 10.6c0 8.53-4.04 16.13-10.27 21.07h-.33v.06z" fill="#1a1a1a"/>
  <text x="82" y="50" font-family="system-ui,-apple-system,sans-serif" font-size="32" font-weight="600" fill="#1a1a1a">OpenAI</text>
</svg>
